<svg width="329" height="568" viewBox="0 0 329 568" fill="none" xmlns="http://www.w3.org/2000/svg">
<path d="M325.171 382.261C320.94 366.722 311.903 353.048 299.639 342.601C294.906 338.561 289.742 334.736 284.1 331.174C279.319 328.137 273.295 332.608 274.681 338.106L278.076 351.542C282.379 368.611 264.067 382.452 248.815 373.679L207.815 350.107C180.873 334.616 147.739 334.616 120.797 350.107L79.7974 373.679C64.5452 382.452 46.233 368.587 50.5361 351.542L54.0264 337.724C55.413 332.249 49.4125 327.779 44.6313 330.791C38.3678 334.712 32.6782 338.967 27.5144 343.437C15.4418 353.908 7.05066 367.965 3.13004 383.457L2.9866 384.03C-6.98231 423.619 8.50894 465.24 41.9299 488.692L145.444 561.295C156.775 569.232 171.86 569.232 183.192 561.295L286.706 488.692C320.629 464.905 336.072 422.376 325.171 382.285V382.261Z" fill="white" fill-opacity="0.4"/>
<path d="M320.866 294.956C311.83 219.46 274.799 143.82 238.987 85.8713L292.203 32.656C304.251 20.6072 295.717 0 278.672 0H164.065C155.22 0 146.351 3.89672 140.374 11.6663C100.02 64.1884 21.0101 179.751 7.21623 294.956C5.9731 305.451 18.2848 311.881 26.1739 304.853C53.7139 280.325 96.6734 262.778 164.041 262.778C231.409 262.778 274.345 280.349 301.909 304.853C309.798 311.881 322.109 305.427 320.866 294.956Z" fill="#226C57"/>
</svg>
