<svg width="600" height="143" viewBox="0 0 600 143" fill="none" xmlns="http://www.w3.org/2000/svg">
<g clip-path="url(#clip0_1599_1568)">
<path d="M81.6116 96.1577C80.5496 92.2577 78.2816 88.8257 75.2036 86.2037C74.0156 85.1897 72.7196 84.2297 71.3036 83.3357C70.1036 82.5737 68.5916 83.6957 68.9396 85.0757L69.7916 88.4477C70.8716 92.7317 66.2756 96.2057 62.4476 94.0037L52.1576 88.0877C45.3956 84.1997 37.0796 84.1997 30.3176 88.0877L20.0276 94.0037C16.1996 96.2057 11.6036 92.7257 12.6836 88.4477L13.5596 84.9797C13.9076 83.6057 12.4016 82.4837 11.2016 83.2397C9.62958 84.2237 8.20158 85.2917 6.90558 86.4137C3.87558 89.0417 1.76958 92.5697 0.785578 96.4577L0.749578 96.6017C-1.75242 106.538 2.13558 116.984 10.5236 122.87L36.5036 141.092C39.3476 143.084 43.1336 143.084 45.9776 141.092L71.9576 122.87C80.4716 116.9 84.3476 106.226 81.6116 96.1637V96.1577Z" fill="white" fill-opacity="0.4"/>
<path d="M80.531 74.2448C78.263 55.2968 68.969 36.3128 59.981 21.7688L73.337 8.4128C76.361 5.3888 74.219 0.216797 69.941 0.216797H41.177C38.957 0.216797 36.731 1.1948 35.231 3.1448C25.103 16.3268 5.27298 45.3308 1.81098 74.2448C1.49898 76.8788 4.58898 78.4928 6.56898 76.7288C13.481 70.5728 24.263 66.1688 41.171 66.1688C58.079 66.1688 68.855 70.5788 75.773 76.7288C77.753 78.4928 80.843 76.8728 80.531 74.2448Z" fill="#226C57"/>
<path d="M114.473 121.435L122.675 108.343C128.285 114.385 135.767 116.827 144.395 116.827C153.023 116.827 163.673 113.089 163.673 98.9888V92.2268C158.207 99.1328 150.725 103.015 142.097 103.015C124.835 103.015 111.461 90.9308 111.461 67.7708C111.461 44.6108 124.553 32.3828 142.097 32.3828C150.443 32.3828 158.063 35.8328 163.673 43.0268V34.1108H181.943V98.9828C181.943 125.305 161.519 131.779 144.401 131.779C132.605 131.779 123.257 129.049 114.479 121.423L114.473 121.435ZM163.667 78.9968V56.4128C160.499 51.9548 153.887 48.6428 147.989 48.6428C137.489 48.6428 130.295 55.8368 130.295 67.7768C130.295 79.7168 137.489 86.9108 147.989 86.9108C153.887 86.9108 160.505 83.4608 163.667 78.9968Z" fill="black"/>
<path d="M238.396 103.597V61.5967C238.396 51.9607 233.362 48.6487 225.592 48.6487C218.398 48.6487 212.932 52.6747 209.77 56.7067V103.603H191.5V34.1167H209.77V43.0327C214.228 37.8547 222.862 32.3887 234.082 32.3887C249.472 32.3887 256.81 41.0167 256.81 54.5407V103.591H238.396V103.597Z" fill="black"/>
<path d="M263.254 68.7845C263.254 49.0805 277.06 32.3945 299.932 32.3945C322.804 32.3945 336.754 49.0805 336.754 68.7845C336.754 88.4885 322.948 105.319 299.932 105.319C276.916 105.319 263.254 88.4885 263.254 68.7845ZM317.77 68.7845C317.77 57.9965 311.44 48.6485 299.932 48.6485C288.424 48.6485 282.238 57.9965 282.238 68.7845C282.238 79.5725 288.568 89.0645 299.932 89.0645C311.296 89.0645 317.77 79.7165 317.77 68.7845Z" fill="black"/>
<path d="M339.227 97.123C339.227 92.809 342.821 89.209 347.141 89.209C351.461 89.209 355.055 92.803 355.055 97.123C355.055 101.443 351.461 105.037 347.141 105.037C342.821 105.037 339.227 101.443 339.227 97.123Z" fill="black"/>
<path d="M363.211 89.0644V7.65039H373.999V86.7664C373.999 91.9444 376.303 95.6824 381.049 95.6824C384.067 95.6824 386.947 94.2424 388.243 92.6644L391.549 100.866C388.675 103.452 384.931 105.324 378.601 105.324C368.389 105.324 363.211 99.4264 363.211 89.0704V89.0644Z" fill="black"/>
<path d="M447.364 103.596V93.2404C442.186 100.29 433.702 105.324 423.916 105.324C405.79 105.324 392.992 91.5184 392.992 68.9344C392.992 46.3504 405.796 32.4004 423.916 32.4004C433.264 32.4004 441.754 37.0024 447.364 44.6284V34.1284H458.152V103.602H447.364V103.596ZM447.364 84.6064V53.2504C443.626 47.2084 435.136 42.0304 426.652 42.0304C412.558 42.0304 404.212 53.5384 404.212 68.9284C404.212 84.3184 412.558 95.6824 426.652 95.6824C435.136 95.6824 443.626 90.6484 447.364 84.6064Z" fill="black"/>
<path d="M516.573 103.597V58.1407C516.573 45.7687 510.243 42.0307 500.895 42.0307C492.411 42.0307 484.497 47.2087 480.327 52.8187V103.597H469.539V34.1167H480.327V44.1847C485.217 38.2867 494.709 32.3887 505.209 32.3887C519.591 32.3887 527.217 39.7267 527.217 54.8287V103.591H516.573V103.597Z" fill="black"/>
<path d="M589.212 103.596V93.2404C584.034 100.29 575.55 105.324 565.764 105.324C547.638 105.324 534.84 91.5184 534.84 68.9344C534.84 46.3504 547.644 32.4004 565.764 32.4004C575.112 32.4004 583.602 37.0024 589.212 44.6284V7.65039H600V103.596H589.212ZM589.212 84.6064V53.2504C585.474 47.2084 576.984 42.0304 568.5 42.0304C554.406 42.0304 546.06 53.5384 546.06 68.9284C546.06 84.3184 554.406 95.6824 568.5 95.6824C576.984 95.6824 585.474 90.6484 589.212 84.6064Z" fill="black"/>
</g>
<defs>
<clipPath id="clip0_1599_1568">
<rect width="600" height="142.8" fill="white"/>
</clipPath>
</defs>
</svg>
