<svg width="266" height="108" viewBox="0 0 266 108" fill="none" xmlns="http://www.w3.org/2000/svg">
<g clip-path="url(#clip0_32_16)">
<path d="M62.29 30.9C56.72 22.43 46.35 16.97 32.98 16.97C12.7 16.97 0 30 0 49.62C0 69.24 12.7 82.16 32.98 82.16C45.24 82.16 56.72 76.7 62.29 68.23V74.36C62.29 89.07 52.37 96.31 34.54 96.31C24.51 96.31 16.38 93.08 10.58 89.29L6.23 96.31C12.8 101.1 24.62 104.45 35.42 104.45C55.03 104.45 71.41 95.09 71.41 73.25V19.19H62.27V30.89L62.29 30.9ZM62.29 52.39C62.29 57.84 60.25 63.22 56.2 66.86C50.51 71.98 43.37 74.03 35.33 74.03C18.62 74.03 9.25 65.23 9.25 49.63C9.25 34.03 18.61 25.11 35.33 25.11C42.79 25.11 49.47 26.87 54.94 31.21C59.67 34.96 62.3 40.8 62.3 46.84V52.4L62.29 52.39Z" fill="#121212"/>
<path d="M126.22 16.97C113.18 16.97 102.93 22.65 97.25 31.79V19.2H88.11V79.93H97.25V47.08C97.25 42.93 98.58 38.84 101.2 35.62C106.95 28.54 115.1 25.09 124.51 25.11C135.76 25.13 144.94 35.04 144.94 46.28V79.93H154.08V45.6C154.08 29 145.05 16.96 126.22 16.96V16.97Z" fill="#121212"/>
<path d="M202.2 76.76C200.68 76.32 199.04 76.67 197.89 77.76L197.76 77.88C208.37 82.57 221.24 80.58 229.92 71.9C238.6 63.22 240.59 50.36 235.91 39.76L235.79 39.89C234.7 41.04 234.36 42.68 234.79 44.2C237.33 53.1 235.1 63.08 228.11 70.08C221.11 77.08 211.12 79.3 202.22 76.76H202.2Z" fill="#121212"/>
<path d="M241.94 45.41C244.83 56.25 241.72 67.89 233.81 75.8C225.88 83.73 214.2 86.84 203.33 83.9C199.36 82.83 195.23 83.67 192.15 86.14C207.12 95.07 226.03 92.76 238.4 80.38C250.76 68.02 253.09 49.11 244.17 34.15C241.71 37.25 240.87 41.4 241.94 45.4V45.41Z" fill="#121212"/>
<path d="M232.7 36.01C242.38 25.87 256.87 10.6 266 0C263.88 2.05 260.23 5.02 256.42 7.98C249.31 13.52 237.2 16.93 229.17 12.84C212.89 4.55 192.42 7.2 178.81 20.81C165.21 34.41 162.55 54.88 170.84 71.17C174.93 79.2 171.52 91.31 165.98 98.42C163.02 102.22 160.05 105.88 158.01 108L163.89 102.58L167.29 99.53C189.36 79.75 212.11 57.36 232.69 36.02L232.7 36.01ZM194.15 20.14C205.74 14.15 219.62 15.75 229.95 23.34C232.06 25.45 232.06 28.87 229.95 30.98L229.92 31.01C218.65 19.74 200.31 19.74 189.04 31.01C177.77 42.28 177.77 60.62 189.04 71.89L188.86 72.07C186.76 74.02 183.49 74 181.42 71.99C169.35 55.53 173.6 30.76 194.16 20.14H194.15ZM195.31 70.09C194.09 71.32 192.1 71.32 190.87 70.09L190.85 70.07C180.58 59.8 180.58 43.1 190.85 32.83C201.12 22.56 217.82 22.56 228.09 32.83L228.11 32.85C229.34 34.09 229.29 36.11 228.05 37.34C217.31 48.01 205.98 59.35 195.3 70.09H195.31Z" fill="#121212"/>
</g>
<defs>
<clipPath id="clip0_32_16">
<rect width="266" height="107.98" fill="white"/>
</clipPath>
</defs>
</svg>
