<svg width="432" height="99" viewBox="0 0 432 99" fill="none" xmlns="http://www.w3.org/2000/svg">
<g clip-path="url(#clip0_32_3)">
<path d="M47.07 34.74C42.86 28.34 35.03 24.21 24.92 24.21C9.6 24.21 0 34.06 0 48.88C0 63.7 9.6 73.47 24.92 73.47C34.18 73.47 42.86 69.34 47.07 62.94V67.57C47.07 78.69 39.58 84.16 26.1 84.16C18.52 84.16 12.37 81.72 8 78.86L4.72 84.16C9.69 87.78 18.61 90.31 26.78 90.31C41.6 90.31 53.98 83.24 53.98 66.73V25.9H47.07V34.74ZM47.07 50.98C47.07 55.09 45.53 59.16 42.47 61.91C38.17 65.78 32.78 67.33 26.7 67.33C14.07 67.33 7 60.68 7 48.89C7 37.1 14.07 30.36 26.7 30.36C32.34 30.36 37.38 31.69 41.52 34.97C45.1 37.81 47.08 42.21 47.08 46.78V50.98H47.07Z" fill="#121212"/>
<path d="M95.38 24.21C85.53 24.21 77.78 28.5 73.49 35.41V25.9H66.59V71.79H73.49V46.97C73.49 43.83 74.5 40.74 76.47 38.31C80.81 32.96 86.97 30.35 94.09 30.37C102.59 30.39 109.53 37.87 109.53 46.37V71.8H116.43V45.87C116.43 33.32 109.61 24.23 95.38 24.23V24.21Z" fill="#121212"/>
<path d="M239.98 9.48H233.08V71.79H239.98V9.48Z" fill="#121212"/>
<path d="M302.31 46.36C302.31 31.79 292.88 24.21 277.47 24.21C269.13 24.21 260.46 26.82 255.07 30.44L258.27 35.49C263.41 32.21 268.96 30.19 276.29 30.19C288.92 30.19 295.24 35.24 295.24 46.36V50.15C291.62 45.1 284.38 40.97 274.44 40.97C264.5 40.97 251.03 45.1 251.03 57.22C251.03 69.34 264.42 73.47 274.44 73.47C284.46 73.47 291.62 69.26 295.24 64.29V64.46C295.24 67.07 295.83 69.51 297.18 71.79H304.51C302.91 69.1 302.32 66.32 302.32 62.86V46.36H302.31ZM295.41 58.06C291.45 65.13 282.78 67.74 275.03 67.74C268.29 67.74 257.85 65.8 257.85 57.21C257.85 48.62 268.29 46.68 275.03 46.68C282.78 46.68 291.45 49.21 295.41 56.36V58.04V58.06Z" fill="#121212"/>
<path d="M345.42 24.21C335.57 24.21 327.82 28.5 323.53 35.41V25.9H316.63V71.79H323.53V46.7C323.53 43.88 324.37 41.09 326.08 38.85C330.44 33.13 336.77 30.35 344.13 30.36C352.63 30.38 359.57 37.86 359.57 46.36V71.79H366.47V45.86C366.47 33.31 359.65 24.22 345.42 24.22V24.21Z" fill="#121212"/>
<path d="M425.09 9.48V34.74C420.88 28.34 413.05 24.21 402.94 24.21C387.62 24.21 378.02 34.06 378.02 48.88C378.02 63.7 387.62 73.47 402.94 73.47C413.04 73.47 420.88 69.34 425.09 62.94V71.78H432V9.48H425.09ZM425.09 52.47C425.09 55.27 424.1 58.01 422.25 60.12C417.7 65.3 411.66 67.32 404.71 67.32C392.08 67.32 385.01 60.67 385.01 48.88C385.01 37.09 392.08 30.35 404.71 30.35C411.65 30.35 417.7 32.37 422.25 37.55C424.1 39.66 425.09 42.4 425.09 45.2V52.46V52.47Z" fill="#121212"/>
<path d="M214.91 62.83C211.95 62.83 209.55 65.23 209.55 68.19C209.55 71.15 211.95 73.55 214.91 73.55C217.87 73.55 220.27 71.15 220.27 68.19C220.27 65.23 217.87 62.83 214.91 62.83Z" fill="#121212"/>
<path d="M158.27 69.93C156.88 69.53 155.39 69.85 154.34 70.84L154.22 70.95C163.88 75.22 175.61 73.41 183.52 65.5C191.42 57.6 193.24 45.88 188.97 36.22L188.86 36.34C187.87 37.39 187.55 38.88 187.95 40.27C190.26 48.38 188.23 57.47 181.86 63.84C175.48 70.22 166.38 72.24 158.27 69.93Z" fill="#121212"/>
<path d="M194.47 41.37C197.1 51.25 194.27 61.85 187.06 69.06C179.83 76.29 169.19 79.12 159.29 76.44C155.67 75.46 151.91 76.23 149.11 78.48C162.74 86.62 179.97 84.51 191.25 73.24C202.51 61.98 204.63 44.75 196.5 31.12C194.26 33.94 193.5 37.72 194.47 41.37Z" fill="#121212"/>
<path d="M186.05 32.81C194.87 23.57 208.07 9.66 216.39 0C214.46 1.87 211.13 4.57 207.67 7.27C201.19 12.31 190.16 15.42 182.84 11.69C168 4.14 149.36 6.56 136.96 18.95C124.56 31.34 122.15 49.99 129.7 64.83C133.43 72.15 130.32 83.18 125.28 89.66C122.59 93.12 119.88 96.45 118.01 98.38L123.37 93.44L126.47 90.66C146.58 72.64 167.3 52.24 186.06 32.8L186.05 32.81ZM150.93 18.35C161.49 12.9 174.13 14.35 183.54 21.26C185.46 23.19 185.46 26.3 183.54 28.22L183.51 28.25C173.24 17.98 156.53 17.98 146.26 28.25C135.99 38.52 135.99 55.23 146.26 65.5L146.1 65.66C144.19 67.44 141.21 67.42 139.32 65.59C128.32 50.59 132.19 28.03 150.92 18.35H150.93ZM151.99 63.86C150.88 64.98 149.07 64.98 147.95 63.86L147.93 63.84C138.58 54.49 138.58 39.27 147.93 29.91C157.28 20.56 172.5 20.56 181.86 29.91L181.88 29.93C183 31.06 182.95 32.9 181.83 34.02C172.04 43.74 161.72 54.07 152 63.85L151.99 63.86Z" fill="#121212"/>
</g>
<defs>
<clipPath id="clip0_32_3">
<rect width="432" height="98.38" fill="white"/>
</clipPath>
</defs>
</svg>
